<?xml version="1.0" encoding="iso-8859-1"?>
<!-- Generator: Adobe Illustrator 19.0.0, SVG Export Plug-In . SVG Version: 6.00 Build 0)  -->
<svg version="1.1" id="Capa_1" xmlns="http://www.w3.org/2000/svg" xmlns:xlink="http://www.w3.org/1999/xlink" x="0px" y="0px"
	 viewBox="0 0 512 512" style="enable-background:new 0 0 512 512;" xml:space="preserve">
<g>
	<path style="fill:#1BD9DE;" d="M407.745,443.666l-21.213-21.213c-5.863-5.863-5.863-15.351,0-21.213s15.351-5.863,21.213,0
		l21.213,21.213c5.863,5.863,5.863,15.351,0,21.213C423.095,449.529,413.608,449.529,407.745,443.666z"/>
	<path style="fill:#1BD9DE;" d="M344.395,464.88c-2.714-2.714-4.392-6.463-4.392-10.607v-29.997c0-8.286,6.712-14.998,14.998-14.998
		c8.286,0,14.998,6.712,14.998,14.998v29.997c0,8.286-6.712,14.998-14.998,14.998C350.858,469.271,347.109,467.593,344.395,464.88z"
		/>
	<path style="fill:#1BD9DE;" d="M398.961,380.608c-2.714-2.714-4.392-6.463-4.392-10.607c0-8.286,6.712-14.998,14.998-14.998h29.997
		c8.286,0,14.998,6.712,14.998,14.998c0,8.286-6.712,14.998-14.998,14.998h-29.997C405.425,385,401.675,383.322,398.961,380.608z"/>
</g>
<g>
	<path style="fill:#1DE8F1;" d="M89.547,125.468l-21.213-21.213c-5.863-5.863-5.863-15.351,0-21.213
		c5.863-5.862,15.351-5.863,21.213,0l21.213,21.213c5.863,5.863,5.863,15.351,0,21.213
		C104.897,131.33,95.409,131.331,89.547,125.468z"/>
	<path style="fill:#1DE8F1;" d="M47.12,167.605c-2.714-2.714-4.392-6.463-4.392-10.607c0-8.286,6.712-14.998,14.998-14.998h29.997
		c8.286,0,14.998,6.712,14.998,14.998s-6.712,14.998-14.998,14.998H57.727C53.584,171.997,49.834,170.319,47.12,167.605z"/>
	<path style="fill:#1DE8F1;" d="M131.392,113.039c-2.714-2.714-4.392-6.463-4.392-10.607V72.435c0-8.286,6.712-14.998,14.998-14.998
		s14.998,6.712,14.998,14.998v29.997c0,8.286-6.712,14.998-14.998,14.998C137.855,117.431,134.106,115.753,131.392,113.039z"/>
</g>
<path style="fill:#136EF1;" d="M472.384,39.616c-52.821-52.821-138.098-52.821-190.919,0l-43.426,43.426
	c-52.821,52.821-52.821,138.098,0,190.919s138.098,52.821,190.919,0l43.426-43.426C525.205,177.714,525.205,92.436,472.384,39.616z
	 M386.532,231.534c-29.274,29.274-76.792,29.274-106.066,0s-29.274-76.792,0-106.066l43.426-43.426
	c29.274-29.274,76.792-29.274,106.066,0s29.274,76.792,0,106.066L386.532,231.534z"/>
<path style="fill:#17ACE8;" d="M280.466,231.534c-52.821-52.821-138.098-52.821-190.919,0l-49.931,49.931
	c-52.821,52.821-52.821,138.098,0,190.919s138.098,52.821,190.919,0l49.931-49.931C333.286,369.633,333.286,284.355,280.466,231.534
	z M188.108,429.958c-29.274,29.274-76.792,29.274-106.066,0s-29.274-76.792,0-106.066l49.931-49.931
	c29.274-29.274,76.792-29.274,106.066,0s29.274,76.792,0,106.066L188.108,429.958z"/>
<path style="fill:#005EE6;" d="M280.466,422.453l-49.931,49.931c-52.821,52.821-138.098,52.821-190.919,0l42.426-42.426
	c29.274,29.274,76.792,29.274,106.066,0l49.931-49.931c29.274-29.274,29.274-76.792,0-106.066l42.426-42.426
	C333.286,284.355,333.286,369.633,280.466,422.453z"/>
<path style="fill:#1689FC;" d="M472.384,230.534l-43.426,43.426c-52.821,52.821-138.098,52.821-190.919,0l42.426-42.426
	c29.274,29.274,76.792,29.274,106.066,0l43.426-43.426c29.274-29.274,29.274-76.792,0-106.066l42.426-42.426
	C525.205,92.436,525.205,177.714,472.384,230.534z"/>
<g>
</g>
<g>
</g>
<g>
</g>
<g>
</g>
<g>
</g>
<g>
</g>
<g>
</g>
<g>
</g>
<g>
</g>
<g>
</g>
<g>
</g>
<g>
</g>
<g>
</g>
<g>
</g>
<g>
</g>
</svg>
